<svg version="1.1" id="Layer_1" xmlns="http://www.w3.org/2000/svg" xmlns:xlink="http://www.w3.org/1999/xlink" x="0px" y="0px"
	 width="100%" viewBox="0 0 1024 1024" enable-background="new 0 0 1024 1024" xml:space="preserve">
<path fill="#000000" opacity="1.000000" stroke="none" 
	d="
M1025.000000,126.000000 
	C1025.000000,398.694702 1025.000000,671.389404 1024.667236,944.644714 
	C1021.032776,946.640015 1018.513245,949.903015 1014.488831,949.619568 
	C1008.734985,949.214172 1003.218323,950.284912 997.815430,952.096985 
	C993.482605,953.550171 989.138306,954.182373 984.552307,953.401184 
	C981.228516,952.835022 977.794128,953.066162 974.853699,954.897400 
	C967.659668,959.377625 959.734436,962.020020 951.545166,963.509460 
	C933.591919,966.774658 918.374878,975.528564 904.932251,987.169678 
	C894.336792,996.345154 882.607727,1003.107910 870.024231,1008.944885 
	C864.012451,1011.733459 856.732361,1013.931396 855.417847,1022.287109 
	C855.329529,1022.848572 854.161560,1023.240234 853.373535,1023.797180 
	C854.487854,1024.307495 855.243958,1024.653687 856.000000,1025.000000 
	C617.638611,1025.000000 379.277252,1025.000000 140.456329,1024.716797 
	C139.277313,1021.495544 138.309357,1018.662231 135.902267,1016.638123 
	C130.691055,1012.255920 125.922012,1007.345703 120.175194,1003.600830 
	C114.945312,1000.192627 110.186852,995.992981 107.309883,990.562195 
	C101.290268,979.199097 91.050232,972.844910 80.686821,966.521912 
	C72.317543,961.415771 62.961887,957.545471 55.558563,951.324341 
	C43.891720,941.520508 31.563345,932.886902 18.149014,925.917969 
	C12.987289,923.236328 7.569406,919.584473 1.000000,921.000000 
	C1.000000,643.305298 1.000000,365.610596 1.199790,87.657867 
	C2.339720,88.974464 3.351806,89.173325 5.087611,88.233780 
	C7.931845,86.694267 10.954986,87.088699 13.573902,88.909485 
	C17.912554,91.925919 21.364216,91.020409 25.088985,87.507744 
	C30.519167,82.386765 36.089508,77.442810 42.886749,73.937958 
	C54.359531,68.022270 62.728550,58.456612 70.352150,48.379837 
	C74.678719,42.661030 78.263641,36.598366 85.210007,33.387135 
	C89.329155,31.482897 93.323135,29.585751 97.872520,29.083712 
	C102.033836,28.624500 106.079941,27.563160 109.955956,26.057734 
	C113.117897,24.829653 117.645935,21.620737 116.203293,19.406294 
	C112.428284,13.611654 111.927658,7.151108 110.000000,1.000000 
	C376.361359,1.000000 642.722717,1.000000 909.345154,1.261361 
	C906.439331,11.865931 911.389893,22.142040 922.806946,28.355198 
	C932.693420,33.735374 941.513550,40.449928 948.995850,48.830929 
	C952.467041,52.718960 956.251099,56.168537 960.579102,59.021770 
	C965.685364,62.388027 969.008606,66.963028 970.462952,72.915436 
	C971.534180,77.299934 973.024475,81.526985 975.271851,85.472336 
	C981.905151,97.117332 990.611328,107.209755 999.333679,117.255287 
	C1003.015076,121.495087 1007.773010,123.931252 1013.744202,124.250999 
	C1017.473755,124.450714 1021.459229,124.131851 1025.000000,126.000000 
M837.692383,156.808350 
	C835.182373,154.633087 832.593201,152.541962 830.175293,150.268723 
	C816.470886,137.384094 801.601196,125.934280 786.084900,115.387108 
	C765.724670,101.547310 744.529785,89.125351 722.022156,78.968246 
	C702.298218,70.067398 682.202881,62.274689 661.439270,56.171257 
	C658.488831,55.303967 656.416443,55.698559 654.297485,57.909801 
	C634.972534,78.076500 613.236572,95.447578 590.795776,111.933571 
	C567.950745,128.716537 544.423706,144.507355 518.938293,157.078049 
	C514.554199,159.240509 512.843323,161.540497 513.009094,166.512619 
	C514.224609,202.972412 515.188049,239.440979 516.090881,275.910248 
	C516.180237,279.517761 517.330383,281.258301 520.937683,282.127106 
	C532.015503,284.795380 542.370239,289.407776 552.377502,294.781525 
	C581.268677,310.295746 607.548218,329.680695 633.327271,349.768463 
	C660.273682,370.765747 687.305847,391.681671 711.517883,415.912140 
	C720.620850,425.022034 728.844421,434.847137 734.939087,446.288849 
	C739.335815,454.542908 739.289185,454.230438 748.414795,453.477844 
	C773.796143,451.384735 799.195801,449.501282 824.600098,447.703583 
	C838.879333,446.693207 853.179504,445.964813 867.476257,445.226074 
	C871.017212,445.043121 872.994080,443.415497 874.860107,440.381012 
	C898.936707,401.228210 920.136719,360.266602 948.095825,323.554352 
	C949.823303,321.286072 950.024170,319.258636 948.913635,316.665741 
	C938.556519,292.483459 926.205933,269.367157 912.164612,247.130585 
	C891.288391,214.069992 866.502991,184.241974 837.692383,156.808350 
M229.224411,137.799240 
	C215.500320,148.040787 202.589951,159.269821 190.170120,171.015259 
	C172.874161,187.372055 157.057648,205.101471 142.242676,223.766388 
	C125.853302,244.414825 112.135147,266.693756 99.959709,290.005768 
	C97.887032,293.974274 97.996109,297.287811 100.319519,301.171936 
	C106.304062,311.176727 112.011436,321.351929 117.648911,331.558807 
	C137.230194,367.011597 156.698776,402.527100 166.961639,442.129913 
	C167.687576,444.931274 169.553360,445.764709 171.913437,446.292175 
	C210.415619,454.896759 248.923782,463.474670 287.411224,472.144745 
	C290.254669,472.785248 291.766846,472.000183 292.835419,469.369751 
	C299.902374,451.973297 311.372314,437.435272 323.322205,423.295563 
	C361.981537,377.551880 405.868347,337.266083 452.737946,300.142029 
	C462.864502,292.121124 473.858704,285.598877 486.522186,282.283936 
	C493.756744,280.390106 493.944824,280.332672 493.626373,272.962158 
	C492.052246,236.530472 489.241547,200.154922 488.654755,163.678894 
	C488.603302,160.479721 486.945709,158.933502 484.179260,157.865417 
	C465.059692,150.483643 446.309753,142.216263 427.591400,133.891373 
	C397.452576,120.487320 366.990448,107.543594 339.393738,89.310410 
	C330.065369,83.147156 322.272308,79.447166 312.378510,86.506538 
	C311.451111,87.168228 310.242401,87.422623 309.199402,87.937202 
	C281.102844,101.799049 254.552582,118.149597 229.224411,137.799240 
M903.096313,792.637878 
	C904.992798,789.923218 906.907166,787.220825 908.782959,784.491943 
	C925.946167,759.522278 940.927307,733.353149 952.884949,705.458984 
	C965.880310,675.144165 975.936279,643.961548 981.975525,611.499268 
	C982.411987,609.153137 981.811035,607.738831 980.509644,606.125244 
	C960.531738,581.355652 940.548035,556.590637 920.623291,531.778259 
	C906.026062,513.600098 890.487976,496.102753 878.648804,475.886597 
	C876.077942,471.496704 873.229919,470.041168 868.272827,470.299652 
	C829.193481,472.337372 790.089417,473.895782 751.152710,478.151306 
	C746.403442,478.670349 744.769348,480.562469 744.658569,484.953003 
	C744.300354,499.141510 740.391846,512.552124 735.142761,525.580811 
	C730.725830,536.543945 725.519226,547.198486 721.340271,558.246094 
	C709.283264,590.120239 694.279663,620.574341 677.487732,650.158081 
	C665.210205,671.788574 652.463074,693.159119 631.573303,707.991272 
	C629.151978,709.710327 629.873291,711.584106 630.833069,713.669922 
	C635.706665,724.261292 640.665466,734.815735 645.371033,745.481689 
	C653.572876,764.072693 661.715454,782.691650 669.634216,801.404175 
	C671.300842,805.342590 673.304993,806.740662 677.544006,805.746399 
	C682.417908,804.603027 687.458069,804.562195 692.467041,804.982117 
	C705.579895,806.081482 718.588074,807.955750 731.552917,810.183289 
	C773.629578,817.412781 814.752014,828.574524 855.698792,840.423340 
	C859.593567,841.550293 862.099243,841.022522 864.918396,838.125977 
	C878.603210,824.065857 890.775024,808.758728 903.096313,792.637878 
M488.500061,986.627808 
	C507.787872,986.863403 527.064087,986.712952 546.266174,984.590149 
	C550.698608,984.100159 554.921814,983.780396 556.871704,978.255310 
	C559.639832,970.411499 563.671326,963.062134 567.702515,955.765747 
	C582.612671,928.778931 598.794556,902.538879 614.665894,876.120422 
	C626.153076,856.999512 636.997925,837.411804 651.823181,820.514160 
	C653.533081,818.565308 653.412354,816.810303 652.425598,814.604126 
	C638.890930,784.342468 626.130554,753.753296 614.001709,722.903503 
	C612.485962,719.048218 610.591431,717.936096 606.443970,719.105713 
	C589.193115,723.970764 571.481140,725.817749 553.618225,726.297546 
	C517.396790,727.270630 481.352539,725.105957 445.609192,719.157166 
	C425.532043,715.815674 405.689056,711.283875 387.814606,700.880798 
	C384.254150,698.808655 382.426178,700.322937 380.308899,702.880310 
	C372.128418,712.761230 363.760590,722.487549 355.615356,732.397034 
	C336.045654,756.205566 316.570587,780.091858 297.028992,803.923462 
	C295.346802,805.974915 294.319672,807.834656 295.609741,810.661499 
	C304.499420,830.140320 309.591705,850.878235 315.314667,871.385376 
	C322.918060,898.630676 330.178772,925.971680 337.562378,953.278198 
	C338.326111,956.102661 339.326904,958.437439 342.494598,959.564270 
	C389.404907,976.251953 437.490173,986.577820 488.500061,986.627808 
M55.673988,637.114197 
	C58.881023,652.395813 63.220360,667.393005 68.185905,682.156982 
	C79.021942,714.375671 92.686050,745.332153 110.172302,774.596558 
	C113.914848,780.859985 117.223595,783.897400 125.149811,782.888489 
	C144.199829,780.463257 163.396011,781.870667 182.545990,782.584656 
	C211.008392,783.645935 239.435364,785.092896 267.671997,789.008484 
	C270.691254,789.427246 272.668457,788.811462 274.650696,786.550110 
	C280.031311,780.412231 285.574646,774.414795 291.126770,768.429688 
	C316.085663,741.524475 339.233765,713.115479 361.438385,683.919373 
	C363.207428,681.593384 364.691315,679.662964 362.437408,676.463501 
	C344.237244,650.627808 329.816284,622.615112 316.094025,594.265869 
	C301.559204,564.237976 291.328583,532.831177 288.496033,499.363770 
	C288.101501,494.701935 285.496124,493.323730 281.543030,492.475067 
	C244.116745,484.440308 206.704269,476.340698 169.310730,468.155060 
	C166.623550,467.566803 164.950333,467.942017 163.510391,470.390869 
	C159.510101,477.194031 154.210403,482.964203 148.590454,488.448212 
	C119.192673,517.134766 86.667458,542.122864 54.529922,567.543396 
	C48.826176,572.054993 45.967575,575.671082 46.969929,583.834106 
	C49.134102,601.458740 52.039253,618.904175 55.673988,637.114197 
M111.600548,423.423065 
	C110.418533,420.590942 108.565491,418.501251 105.244614,418.836731 
	C101.942024,419.170319 100.461823,421.718353 99.684807,424.549561 
	C97.439842,432.729614 95.385620,440.961945 93.154495,449.145935 
	C92.690575,450.847626 92.593475,453.137726 90.631775,453.751343 
	C88.205086,454.510437 87.963432,451.784943 86.769478,450.588623 
	C85.712486,449.529449 84.716782,448.404938 83.744408,447.266235 
	C76.776543,439.106201 74.334763,426.133423 80.973030,417.748230 
	C83.450500,414.618805 83.420082,410.932007 81.840950,407.317047 
	C80.308441,403.808746 78.702759,400.332306 77.114044,396.848785 
	C76.095428,394.615265 74.605270,392.826324 72.002731,392.600250 
	C69.318001,392.367035 67.859634,394.136078 66.492302,396.190216 
	C61.908154,403.076782 60.727001,411.055298 59.450077,418.888336 
	C55.290230,444.406036 49.116184,469.601410 46.782070,495.402191 
	C45.946880,504.634155 44.399796,513.915039 46.012398,523.243591 
	C46.811153,527.864197 47.691700,532.289856 54.068596,531.842468 
	C55.188129,531.763916 56.404316,532.966248 57.565678,533.595947 
	C68.189156,539.355774 73.454666,538.195862 80.425041,528.443054 
	C81.916275,526.356567 83.748589,524.743713 85.949890,523.491638 
	C93.769257,519.044189 100.647629,513.817993 103.161369,504.475159 
	C103.846115,501.930176 105.710129,499.816498 107.612717,497.911102 
	C109.933403,495.587006 111.192490,492.727875 111.836403,489.566132 
	C113.765160,480.095520 112.003487,471.992889 102.858170,466.737488 
	C106.116112,459.920593 107.498680,452.910339 108.721817,445.893280 
	C109.974731,438.705383 112.192680,431.639465 111.600548,423.423065 
M267.855591,863.673523 
	C273.482483,859.821167 273.916718,858.118652 271.207672,852.107178 
	C269.172089,847.590149 265.004456,846.211487 260.849457,845.071411 
	C253.280579,842.994507 245.703552,840.924255 238.962616,836.811218 
	C235.041611,834.418823 230.950592,832.853394 226.485504,831.977112 
	C210.744354,828.888000 196.927460,821.196716 183.129974,813.539917 
	C180.051620,811.831665 177.080170,810.876343 173.626389,811.653503 
	C169.269241,812.633850 165.312042,812.326050 161.207291,809.897400 
	C155.812881,806.705811 149.658844,805.549316 143.358444,806.549011 
	C138.398300,807.335999 136.755386,810.897705 139.109192,815.333984 
	C139.807648,816.650330 140.692703,817.881836 141.597580,819.072205 
	C150.165024,830.342407 159.574005,840.859131 169.727127,850.729492 
	C171.989166,852.928589 174.460266,854.132263 177.531967,854.728394 
	C196.334885,858.377747 215.201065,861.672546 234.283539,863.363831 
	C245.185715,864.330078 256.133575,866.084412 267.855591,863.673523 
M411.857697,434.796722 
	C413.383881,438.297852 416.623993,439.210052 420.472107,436.192139 
	C424.370605,433.134705 428.812775,431.411591 433.141754,429.368622 
	C437.796448,427.171936 441.244965,423.515656 444.690765,419.969055 
	C448.267303,416.287903 447.084442,412.788849 442.125092,411.982391 
	C437.598267,411.246277 437.139069,408.351288 438.191772,405.063171 
	C439.517090,400.923492 439.576752,396.867279 438.600983,392.786865 
	C437.470215,388.058197 438.912964,384.362122 442.308990,381.104706 
	C449.033813,374.654419 455.499603,367.921570 462.421844,361.693848 
	C467.260315,357.340820 468.421600,351.732605 469.716187,345.957794 
	C466.383942,344.032867 463.607971,344.160156 460.664673,346.303619 
	C454.206085,351.007111 447.806549,355.765472 441.834442,361.089020 
	C425.058441,376.043213 409.924103,392.717834 393.023132,407.549011 
	C388.535339,411.487183 384.432281,415.914612 380.515106,420.431763 
	C378.399353,422.871613 375.931122,426.118134 378.430542,429.384583 
	C380.952789,432.680908 384.917908,433.186981 388.902649,432.004944 
	C391.340088,431.281860 393.314789,429.706024 395.267548,428.143616 
	C397.095306,426.681183 398.963654,425.276428 401.233459,424.582245 
	C408.256592,422.434174 413.564178,427.130371 411.857697,434.796722 
M533.346924,53.803822 
	C541.822693,52.989887 550.256409,52.723835 558.760559,53.962124 
	C567.655334,55.257301 576.629089,56.036472 585.582886,56.888397 
	C590.056519,57.314049 594.605591,57.655224 598.946716,56.052872 
	C603.941284,54.209362 604.719116,50.523067 601.002380,46.907459 
	C597.429749,43.432114 592.885986,42.521805 588.177673,42.110722 
	C577.575623,41.185070 566.985229,39.986214 556.362427,39.473919 
	C543.060730,38.832439 529.718628,38.268757 516.417358,38.602333 
	C504.494293,38.901344 492.568878,40.172108 480.708893,41.563095 
	C472.154022,42.566444 463.611237,44.126728 455.722565,47.947243 
	C453.455261,49.045319 450.877930,50.306023 451.095551,53.214489 
	C451.287048,55.774506 454.030701,56.064205 455.992310,56.851070 
	C457.071838,57.284077 458.187531,57.685726 459.324768,57.907288 
	C477.700653,61.487431 496.037170,61.521072 514.266113,56.993839 
	C520.251831,55.507267 526.144958,53.638931 533.346924,53.803822 
M983.081116,731.506714 
	C982.864258,728.953369 983.615723,726.262146 981.746643,722.870361 
	C977.891724,728.114319 974.118774,732.657715 971.062439,737.640625 
	C969.412109,740.331177 970.911560,743.324707 973.500244,744.976501 
	C976.331482,746.783142 978.548035,745.106384 980.263855,742.776733 
	C982.532288,739.696838 983.270081,736.172607 983.081116,731.506714 
M381.846313,411.704224 
	C380.665375,414.350067 381.988617,414.944489 383.991150,413.806427 
	C386.012543,412.657623 388.018402,411.063934 387.870087,408.075714 
	C385.022491,407.930115 383.777435,409.850586 381.846313,411.704224 
z"/>
</svg>