<?xml version="1.0" standalone="no"?>
<!DOCTYPE svg PUBLIC "-//W3C//DTD SVG 20010904//EN"
 "http://www.w3.org/TR/2001/REC-SVG-20010904/DTD/svg10.dtd">
<svg version="1.0" xmlns="http://www.w3.org/2000/svg"
 width="30.000000pt" height="30.000000pt" viewBox="0 0 1920.000000 1920.000000"
 preserveAspectRatio="xMidYMid meet">

<g transform="translate(0.000000,1920.000000) scale(0.100000,-0.100000)"
fill="#000000" stroke="none">
<path d="M9645 18483 c-472 -17 -1124 -105 -1603 -218 -81 -19 -237 -53 -347
-75 -362 -74 -694 -163 -1030 -274 -221 -74 -535 -195 -535 -207 0 -10 170
-131 275 -196 214 -133 694 -380 1095 -566 455 -210 1243 -552 1506 -652 l151
-58 6 -301 c4 -166 11 -380 17 -476 29 -508 70 -1349 70 -1446 l0 -71 -66 -12
c-266 -49 -540 -202 -875 -487 -57 -50 -181 -151 -276 -227 -368 -295 -753
-649 -1254 -1154 -710 -716 -1135 -1256 -1285 -1630 -23 -58 -42 -93 -51 -93
-8 0 -121 25 -251 55 -130 30 -592 133 -1027 229 -434 96 -849 189 -922 206
l-131 31 -7 42 c-12 71 -100 355 -165 528 -121 323 -302 717 -495 1074 -296
546 -371 684 -492 893 -74 127 -139 234 -143 237 -10 6 -22 -21 -112 -230
-276 -644 -487 -1397 -628 -2234 -22 -130 -53 -303 -70 -386 -121 -595 -170
-1077 -170 -1670 0 -259 14 -621 25 -633 12 -14 865 670 1345 1077 478 407
721 651 835 842 21 35 39 65 41 67 1 2 75 -15 165 -37 166 -41 555 -125 929
-202 113 -22 349 -73 525 -111 332 -72 549 -118 646 -138 l56 -11 6 -122 c16
-326 152 -879 322 -1317 214 -550 793 -1634 1063 -1990 23 -30 42 -59 42 -65
0 -5 -82 -116 -182 -245 -445 -577 -743 -931 -1233 -1465 -126 -138 -253 -277
-281 -309 l-51 -58 -129 20 c-529 84 -2074 158 -2544 122 -182 -14 -230 -21
-230 -34 0 -6 50 -83 111 -171 447 -643 887 -1124 1430 -1560 296 -238 934
-680 1289 -892 302 -180 786 -411 1198 -572 93 -36 102 -38 102 -20 0 10 -49
200 -109 421 -61 222 -162 594 -225 828 -239 882 -363 1274 -467 1481 l-28 56
196 244 c567 705 1486 1809 1506 1809 5 0 36 -16 68 -36 491 -298 1579 -485
2824 -485 534 0 932 42 1263 133 64 17 117 27 121 22 4 -5 70 -164 146 -354
212 -530 534 -1289 615 -1450 l41 -81 -58 -63 c-121 -128 -286 -369 -545 -791
-208 -339 -813 -1358 -933 -1570 -159 -282 -337 -646 -323 -660 3 -3 79 6 169
20 90 14 227 32 304 40 1672 181 3281 872 4596 1976 291 244 655 594 628 603
-44 16 -619 176 -842 235 -1149 302 -2138 477 -2499 441 -57 -5 -120 -15 -141
-21 -22 -6 -40 -9 -41 -7 -2 2 -47 107 -101 233 -130 306 -394 910 -443 1016
-22 46 -79 170 -127 274 -48 105 -101 217 -117 250 l-30 59 23 16 c390 255
722 726 1243 1760 197 391 294 606 436 970 38 96 96 236 130 310 235 515 338
865 344 1164 1 58 4 107 6 110 7 6 347 42 585 60 673 53 775 60 1280 81 198 8
412 18 476 21 l116 7 40 -74 c126 -230 317 -482 923 -1224 333 -408 510 -628
710 -885 172 -221 322 -402 328 -396 10 11 54 287 87 544 73 571 85 1321 30
1917 -88 950 -297 1836 -641 2715 -36 91 -69 168 -73 173 -8 8 -199 -248 -327
-439 -115 -172 -312 -489 -474 -764 -73 -124 -243 -409 -377 -634 -135 -224
-251 -423 -259 -442 -17 -41 -18 -41 -219 -49 -243 -9 -1169 -65 -1310 -80
-27 -3 -140 -12 -250 -20 -328 -25 -688 -55 -723 -59 -32 -5 -33 -4 -78 90
-197 404 -587 798 -1564 1575 -521 415 -869 675 -1225 915 -545 367 -921 560
-1246 641 l-106 26 -6 396 c-4 218 -11 540 -17 716 -15 482 -29 894 -36 1043
l-6 133 33 12 c80 28 320 155 521 276 583 349 1145 756 1683 1217 145 124 465
430 465 444 0 9 -226 68 -435 114 -699 154 -1429 217 -2200 189z"/>
</g>
</svg>
